<?xml version="1.0" encoding="UTF-8"?>
<!DOCTYPE svg PUBLIC "-//W3C//DTD SVG 1.1//EN" "http://www.w3.org/Graphics/SVG/1.1/DTD/svg11.dtd">
<!-- Creator: CorelDRAW -->
<svg xmlns="http://www.w3.org/2000/svg" xml:space="preserve" width="1191px" height="1500px" version="1.1" style="shape-rendering:geometricPrecision; text-rendering:geometricPrecision; image-rendering:optimizeQuality; fill-rule:evenodd; clip-rule:evenodd"
viewBox="0 0 1191 1499.77"
 xmlns:xlink="http://www.w3.org/1999/xlink"
 xmlns:xodm="http://www.corel.com/coreldraw/odm/2003">
 <defs>
  <style type="text/css">
   <![CDATA[
    .fil1 {fill:#373535}
    .fil0 {fill:#373535;fill-rule:nonzero}
   ]]>
  </style>
 </defs>
 <g id="Layer_x0020_1">
  <metadata id="CorelCorpID_0Corel-Layer"/>
  <g id="_105553226980448">
   <g>
    <path class="fil0" d="M227.97 1482.73l0 14.53 -2.37 0 0 -41.96 11.01 0c3.22,0.43 5.9,1.77 8.15,3.96 2.67,2.73 4.01,5.95 4.01,9.72 0,3.77 -1.34,7 -4.01,9.73 -2.68,2.68 -5.9,4.02 -9.67,4.02l-7.12 0zm0 -25.06l0 22.62 7.12 0c3.1,0 5.77,-1.09 7.96,-3.28 2.25,-2.25 3.35,-4.92 3.35,-8.03 0,-3.16 -1.1,-5.83 -3.35,-8.02 -2.19,-2.19 -4.86,-3.29 -7.96,-3.29l-7.12 0z"/>
    <polygon id="1" class="fil0" points="281.29,1455.3 281.29,1457.67 262.68,1457.67 262.68,1475.07 281.29,1475.07 281.29,1477.44 262.68,1477.44 262.68,1494.89 281.29,1494.89 281.29,1497.26 260.31,1497.26 260.31,1455.3 "/>
    <path id="2" class="fil0" d="M296.55 1457.67l0 22.62 7.12 0c3.1,0 5.78,-1.09 7.97,-3.28 2.24,-2.25 3.34,-4.92 3.34,-8.03 0,-3.16 -1.1,-5.83 -3.34,-8.02 -2.19,-2.19 -4.87,-3.29 -7.97,-3.29l-7.12 0zm7.85 25.06l-7.85 0 0 14.53 -2.37 0 0 -41.96 11.01 0c3.22,0.43 5.9,1.77 8.15,3.96 2.67,2.73 4.01,5.95 4.01,9.72 0,3.77 -1.34,7 -4.01,9.67 -1.83,1.89 -3.95,3.1 -6.39,3.65l9.67 14.96 -2.92 0 -9.3 -14.53z"/>
    <path id="3" class="fil0" d="M340.26 1474.03c-2.98,-1.03 -5.35,-2.37 -7.11,-4.07 -1.7,-1.77 -2.56,-3.89 -2.56,-6.33 0,-2.43 0.86,-4.5 2.56,-6.26 1.76,-1.7 3.83,-2.61 6.32,-2.61 2.43,0 4.56,0.91 6.33,2.61 0.91,0.97 1.58,2.01 1.94,3.16l-2.13 0.79c-0.3,-0.85 -0.85,-1.64 -1.52,-2.31 -1.27,-1.27 -2.79,-1.94 -4.62,-1.94 -1.82,0 -3.34,0.67 -4.62,1.94 -1.28,1.22 -1.88,2.8 -1.88,4.62 0,1.77 0.6,3.35 1.88,4.63 1.15,1.15 2.8,2.24 4.93,3.22 3.34,1.09 6.2,2.73 8.51,5.05 2.37,2.43 3.59,5.35 3.59,8.75 0,3.47 -1.22,6.39 -3.65,8.82 -2.43,2.43 -5.35,3.65 -8.76,3.65 -3.47,0 -6.38,-1.22 -8.82,-3.65 -1.94,-1.95 -3.1,-4.2 -3.46,-6.81l2.19 -0.79c0.24,2.31 1.21,4.25 2.92,5.96 2,1.94 4.37,2.98 7.17,2.98 2.8,0 5.17,-1.04 7.18,-2.98 1.94,-2.01 2.98,-4.38 2.98,-7.18 0,-2.74 -1.04,-5.11 -2.98,-7.11 -1.77,-1.77 -3.9,-3.1 -6.39,-4.14z"/>
    <path id="4" class="fil0" d="M365.46 1482.73l0 14.53 -2.37 0 0 -41.96 11.01 0c3.22,0.43 5.9,1.77 8.15,3.96 2.67,2.73 4.01,5.95 4.01,9.72 0,3.77 -1.34,7 -4.01,9.73 -2.68,2.68 -5.9,4.02 -9.67,4.02l-7.12 0zm0 -25.06l0 22.62 7.12 0c3.1,0 5.77,-1.09 7.96,-3.28 2.25,-2.25 3.35,-4.92 3.35,-8.03 0,-3.16 -1.1,-5.83 -3.35,-8.02 -2.19,-2.19 -4.86,-3.29 -7.96,-3.29l-7.12 0z"/>
    <polygon id="5" class="fil0" points="418.78,1455.3 418.78,1457.67 400.17,1457.67 400.17,1475.07 418.78,1475.07 418.78,1477.44 400.17,1477.44 400.17,1494.89 418.78,1494.89 418.78,1497.26 397.8,1497.26 397.8,1455.3 "/>
    <path id="6" class="fil0" d="M464.69 1490.57l1.77 1.64c-4.08,3.71 -8.88,5.54 -14.42,5.54 -5.95,0 -11.06,-2.07 -15.26,-6.27 -4.13,-4.19 -6.26,-9.24 -6.26,-15.2 0,-5.96 2.13,-11 6.26,-15.2 4.2,-4.2 9.31,-6.32 15.26,-6.32 5.54,0 10.34,1.88 14.42,5.65l-1.77 1.58c-3.65,-3.16 -7.84,-4.8 -12.65,-4.8 -5.29,0 -9.79,1.88 -13.49,5.59 -3.77,3.71 -5.6,8.21 -5.6,13.5 0,5.29 1.83,9.79 5.6,13.5 3.7,3.71 8.2,5.59 13.49,5.59 4.81,0 9,-1.58 12.65,-4.8z"/>
    <polygon id="7" class="fil0" points="488.47,1457.67 488.47,1497.26 486.1,1497.26 486.1,1457.67 475.52,1457.67 475.52,1455.3 499.12,1455.3 499.12,1457.67 "/>
    <polygon id="8" class="fil0" points="512.31,1455.3 512.31,1497.26 509.94,1497.26 509.94,1455.3 "/>
    <polygon id="9" class="fil0" points="551.26,1455.3 553.75,1455.3 538.67,1497.26 537.21,1497.26 522.13,1455.3 524.63,1455.3 537.94,1493 "/>
    <polygon id="10" class="fil0" points="584.3,1455.3 584.3,1457.67 565.7,1457.67 565.7,1475.07 584.3,1475.07 584.3,1477.44 565.7,1477.44 565.7,1494.89 584.3,1494.89 584.3,1497.26 563.33,1497.26 563.33,1455.3 "/>
    <path class="fil0" d="M229.94 1484.71l0 14.55 -6.38 0 0 -45.99 13.02 0 0.26 0.02c1.82,0.25 3.5,0.76 5.06,1.52 1.57,0.78 3,1.8 4.26,3.06l0.01 0.01c1.51,1.53 2.65,3.23 3.42,5.09 0.77,1.86 1.16,3.86 1.16,5.99 0,2.15 -0.39,4.17 -1.16,6.04 -0.77,1.87 -1.91,3.57 -3.43,5.09 -1.53,1.53 -3.22,2.68 -5.07,3.45 -1.87,0.78 -3.88,1.17 -6.02,1.17l-5.13 0zm0 -25.03l0 18.62 5.13 0c1.29,0 2.48,-0.22 3.56,-0.67 1.09,-0.45 2.1,-1.14 3.02,-2.06 0.91,-0.9 1.6,-1.91 2.05,-3.01 0.45,-1.08 0.68,-2.28 0.68,-3.6 0,-1.3 -0.23,-2.5 -0.68,-3.58 -0.45,-1.08 -1.14,-2.08 -2.05,-2.99 -0.92,-0.91 -1.93,-1.6 -3.01,-2.04 -1.08,-0.45 -2.27,-0.67 -3.57,-0.67l-5.13 0zm53.32 -4.41l0 4.38 -18.61 0 0 13.43 18.61 0 0 6.38 -18.61 0 0 13.43 18.61 0 0 6.37 -24.99 0 0 -45.99 24.99 0 0 2zm15.27 4.41l0 18.62 5.13 0c1.29,0 2.48,-0.22 3.56,-0.67 1.09,-0.45 2.1,-1.14 3.02,-2.06 0.91,-0.9 1.6,-1.91 2.05,-3.01 0.45,-1.08 0.68,-2.28 0.68,-3.6 0,-1.3 -0.23,-2.5 -0.68,-3.58 -0.45,-1.08 -1.14,-2.08 -2.05,-2.99 -0.92,-0.91 -1.93,-1.6 -3.01,-2.04 -1.08,-0.45 -2.27,-0.67 -3.57,-0.67l-5.13 0zm4.75 25.03l-4.75 0 0 14.55 -6.38 0 0 -45.99 13.02 0 0.26 0.02c1.82,0.25 3.5,0.76 5.06,1.52 1.58,0.78 3,1.8 4.26,3.06l0.01 0.01c1.51,1.53 2.65,3.23 3.42,5.09 0.77,1.86 1.16,3.86 1.16,5.99 0,2.15 -0.39,4.17 -1.16,6.04 -0.77,1.86 -1.91,3.56 -3.43,5.08 -1.05,1.05 -2.19,1.93 -3.42,2.63 -0.43,0.25 -0.86,0.47 -1.31,0.68l10.28 15.87 -7.66 0 -9.36 -14.55zm36.24 -8.84c-1.59,-0.53 -3.02,-1.17 -4.29,-1.9 -1.35,-0.78 -2.52,-1.66 -3.49,-2.63 -1.05,-1.06 -1.84,-2.23 -2.38,-3.53 -0.53,-1.3 -0.8,-2.7 -0.8,-4.19 0,-1.47 0.26,-2.85 0.8,-4.14 0.53,-1.27 1.32,-2.44 2.37,-3.5l0.01 -0.02c1.04,-1.04 2.22,-1.84 3.53,-2.38 1.31,-0.54 2.71,-0.81 4.19,-0.81 1.47,0 2.86,0.27 4.16,0.81 1.29,0.53 2.47,1.33 3.54,2.38 0.57,0.56 1.07,1.17 1.48,1.82 0.43,0.67 0.77,1.38 1,2.1l0.59 1.79 -5.79 2.25 -0.71 -1.9c-0.1,-0.29 -0.24,-0.57 -0.41,-0.82 -0.16,-0.25 -0.39,-0.52 -0.67,-0.8 -0.44,-0.45 -0.93,-0.78 -1.44,-1 -0.52,-0.21 -1.1,-0.32 -1.75,-0.32 -0.64,0 -1.23,0.11 -1.74,0.32 -0.53,0.22 -1.02,0.55 -1.47,1 -0.45,0.45 -0.78,0.93 -1,1.46 -0.21,0.52 -0.32,1.1 -0.32,1.76 0,0.64 0.11,1.23 0.32,1.75 0.21,0.52 0.55,1.02 0.99,1.47 0.5,0.49 1.1,0.96 1.8,1.41 0.71,0.46 1.53,0.91 2.46,1.35 1.77,0.58 3.42,1.33 4.94,2.24 1.56,0.94 2.98,2.03 4.23,3.28 1.38,1.38 2.43,2.94 3.14,4.65 0.71,1.71 1.07,3.55 1.07,5.52 0,1.97 -0.36,3.82 -1.07,5.54 -0.7,1.72 -1.76,3.28 -3.16,4.68 -1.4,1.41 -2.96,2.48 -4.66,3.19 -1.71,0.71 -3.55,1.07 -5.53,1.07 -1.98,0 -3.83,-0.36 -5.54,-1.08 -1.71,-0.71 -3.27,-1.78 -4.66,-3.2 -1.12,-1.11 -2.03,-2.33 -2.7,-3.64 -0.69,-1.33 -1.15,-2.74 -1.37,-4.24l-0.23 -1.61 6.17 -2.25 0.25 2.56c0.09,0.9 0.33,1.74 0.71,2.52 0.38,0.77 0.92,1.51 1.62,2.19l0.01 0.02c0.8,0.8 1.67,1.4 2.62,1.79 0.94,0.39 1.99,0.58 3.12,0.58 1.14,0 2.19,-0.19 3.13,-0.58 0.95,-0.39 1.82,-0.99 2.62,-1.79 0.8,-0.81 1.4,-1.69 1.79,-2.63 0.39,-0.94 0.59,-1.98 0.59,-3.12 0,-1.12 -0.2,-2.15 -0.59,-3.09 -0.39,-0.95 -0.99,-1.82 -1.79,-2.63 -0.77,-0.77 -1.64,-1.46 -2.58,-2.08 -0.95,-0.61 -1.99,-1.16 -3.11,-1.62zm27.93 8.84l0 14.55 -6.38 0 0 -45.99 13.01 0 0.27 0.02c1.81,0.25 3.5,0.76 5.06,1.52 1.57,0.78 3,1.8 4.26,3.06l0 0.01c1.52,1.53 2.66,3.23 3.43,5.09 0.77,1.86 1.16,3.86 1.16,5.99 0,2.15 -0.39,4.17 -1.16,6.04 -0.77,1.87 -1.92,3.57 -3.43,5.09 -1.53,1.53 -3.22,2.68 -5.08,3.45 -1.86,0.78 -3.87,1.17 -6.02,1.17l-5.12 0zm0 -25.03l0 18.62 5.12 0c1.3,0 2.49,-0.22 3.56,-0.67 1.1,-0.45 2.1,-1.14 3.02,-2.06 0.92,-0.9 1.61,-1.91 2.06,-3.01 0.45,-1.08 0.67,-2.28 0.67,-3.6 0,-1.3 -0.22,-2.5 -0.67,-3.58 -0.46,-1.08 -1.14,-2.08 -2.06,-2.99 -0.92,-0.91 -1.92,-1.6 -3,-2.04 -1.08,-0.45 -2.28,-0.67 -3.58,-0.67l-5.12 0zm53.32 -4.41l0 4.38 -18.61 0 0 13.43 18.61 0 0 6.38 -18.61 0 0 13.43 18.61 0 0 6.37 -24.99 0 0 -45.99 24.99 0 0 2zm45.23 33.82l3.48 3.07 -1.65 1.5c-2.24,2.03 -4.67,3.55 -7.31,4.57 -2.65,1.02 -5.48,1.54 -8.49,1.54 -3.23,0 -6.24,-0.58 -9.03,-1.73 -2.78,-1.15 -5.32,-2.87 -7.6,-5.14 -2.28,-2.27 -3.99,-4.81 -5.14,-7.6 -1.15,-2.79 -1.73,-5.8 -1.73,-9.03 0,-3.21 0.58,-6.22 1.73,-9 1.14,-2.78 2.86,-5.31 5.13,-7.6 2.29,-2.29 4.82,-4.02 7.6,-5.17 2.8,-1.15 5.81,-1.73 9.04,-1.73 3.01,0 5.84,0.52 8.49,1.54 2.65,1.03 5.08,2.56 7.32,4.59l1.64 1.49 -4.8 4.26 -1.32 -1.17c-1.62,-1.43 -3.37,-2.5 -5.25,-3.21 -1.87,-0.71 -3.9,-1.07 -6.08,-1.07 -2.38,0 -4.57,0.42 -6.57,1.24 -2,0.83 -3.84,2.08 -5.52,3.76 -1.68,1.67 -2.93,3.51 -3.76,5.51 -0.83,2 -1.24,4.18 -1.24,6.56 0,4.73 1.66,8.77 5,12.1 1.68,1.67 3.52,2.92 5.52,3.75 2,0.82 4.19,1.23 6.57,1.23 2.18,0 4.2,-0.35 6.08,-1.06 1.87,-0.7 3.62,-1.78 5.25,-3.21l1.32 -1.16 1.32 1.17zm24.49 -29.44l0 39.61 -6.35 0 0 -39.61 -10.63 0 0 -6.38 27.61 0 0 6.38 -10.63 0zm23.81 -4.38l0 43.99 -6.38 0 0 -45.99 6.38 0 0 2zm36.98 -2l5.33 0 -16.52 45.99 -4.26 0 -16.52 -45.99 6.74 0 11.93 33.72 11.89 -33.72 1.41 0zm35.03 2l0 4.38 -18.6 0 0 13.43 18.6 0 0 6.38 -18.6 0 0 13.43 18.6 0 0 6.37 -24.98 0 0 -45.99 24.98 0 0 2z"/>
    <polygon class="fil0" points="614.99,1455.3 614.99,1497.26 612.62,1497.26 612.62,1455.3 "/>
    <polygon id="1" class="fil0" points="631.08,1455.3 658.99,1494.4 658.99,1455.3 661.36,1455.3 661.36,1497.26 657.71,1497.26 630.41,1459.07 630.41,1497.26 628.04,1497.26 628.04,1455.3 "/>
    <path id="2" class="fil0" d="M685.52 1474.03c-2.98,-1.03 -5.35,-2.37 -7.11,-4.07 -1.71,-1.77 -2.56,-3.89 -2.56,-6.33 0,-2.43 0.85,-4.5 2.56,-6.26 1.76,-1.7 3.83,-2.61 6.32,-2.61 2.43,0 4.56,0.91 6.32,2.61 0.92,0.97 1.58,2.01 1.95,3.16l-2.13 0.79c-0.3,-0.85 -0.85,-1.64 -1.52,-2.31 -1.28,-1.27 -2.8,-1.94 -4.62,-1.94 -1.82,0 -3.35,0.67 -4.62,1.94 -1.28,1.22 -1.89,2.8 -1.89,4.62 0,1.77 0.61,3.35 1.89,4.63 1.15,1.15 2.8,2.24 4.92,3.22 3.35,1.09 6.21,2.73 8.52,5.05 2.37,2.43 3.58,5.35 3.58,8.75 0,3.47 -1.21,6.39 -3.64,8.82 -2.44,2.43 -5.36,3.65 -8.76,3.65 -3.47,0 -6.38,-1.22 -8.82,-3.65 -1.94,-1.95 -3.1,-4.2 -3.46,-6.81l2.19 -0.79c0.24,2.31 1.21,4.25 2.92,5.96 2,1.94 4.37,2.98 7.17,2.98 2.8,0 5.17,-1.04 7.17,-2.98 1.95,-2.01 2.98,-4.38 2.98,-7.18 0,-2.74 -1.03,-5.11 -2.98,-7.11 -1.76,-1.77 -3.89,-3.1 -6.38,-4.14z"/>
    <polygon id="3" class="fil0" points="711.03,1455.3 711.03,1497.26 708.65,1497.26 708.65,1455.3 "/>
    <path id="4" class="fil0" d="M731.98 1455.3c6.87,0 12.22,1.95 16.05,5.78 4.2,4.2 6.27,9.24 6.27,15.2 0,5.96 -2.07,11.01 -6.27,15.2 -3.83,3.83 -9.18,5.72 -16.05,5.78l-7.78 0 0 -41.96 7.78 0zm-5.41 2.44l0 37.09 5.35 0c6.02,0 10.82,-1.7 14.29,-5.05 3.71,-3.71 5.59,-8.21 5.59,-13.5 0,-5.29 -1.88,-9.79 -5.59,-13.5 -3.47,-3.34 -8.27,-5.04 -14.29,-5.04l-5.35 0z"/>
    <polygon id="5" class="fil0" points="786.7,1455.3 786.7,1457.67 768.1,1457.67 768.1,1475.07 786.7,1475.07 786.7,1477.44 768.1,1477.44 768.1,1494.89 786.7,1494.89 786.7,1497.26 765.72,1497.26 765.72,1455.3 "/>
    <path class="fil0" d="M616.96 1455.27l0 43.99 -6.38 0 0 -45.99 6.38 0 0 2zm15.71 -1.16l24.29 34.04 0 -34.88 6.38 0 0 45.99 -6.68 0 -24.24 -33.95 0 33.95 -6.38 0 0 -45.99 6.03 0 0.6 0.84zm-1.9 4.21l-0.73 -1.02 0 1.25 0.73 -0.23zm28.57 36.58l-0.73 0.23 0.09 0.13 0.64 0 0 -0.36zm25.44 -19.03c-1.58,-0.53 -3.02,-1.17 -4.29,-1.9 -1.35,-0.78 -2.52,-1.66 -3.49,-2.63 -1.05,-1.06 -1.84,-2.23 -2.37,-3.53 -0.54,-1.3 -0.81,-2.7 -0.81,-4.19 0,-1.47 0.27,-2.85 0.8,-4.14 0.53,-1.27 1.33,-2.44 2.37,-3.5l0.01 -0.02c1.05,-1.04 2.23,-1.84 3.54,-2.38 1.3,-0.54 2.7,-0.81 4.19,-0.81 1.47,0 2.85,0.27 4.15,0.81 1.29,0.53 2.48,1.33 3.54,2.38 0.57,0.56 1.07,1.17 1.49,1.82 0.43,0.67 0.76,1.38 1,2.1l0.58 1.79 -5.79 2.25 -0.71 -1.9c-0.1,-0.29 -0.24,-0.57 -0.4,-0.82 -0.17,-0.25 -0.4,-0.52 -0.67,-0.8 -0.45,-0.45 -0.93,-0.78 -1.45,-1 -0.52,-0.21 -1.1,-0.32 -1.74,-0.32 -0.65,0 -1.23,0.11 -1.75,0.32 -0.53,0.22 -1.02,0.55 -1.47,1 -0.44,0.45 -0.78,0.93 -1,1.46 -0.21,0.52 -0.32,1.1 -0.32,1.76 0,0.64 0.11,1.23 0.32,1.75 0.22,0.52 0.55,1.02 1,1.47 0.49,0.49 1.09,0.96 1.79,1.41 0.71,0.46 1.53,0.91 2.46,1.35 1.78,0.58 3.43,1.33 4.94,2.24 1.57,0.94 2.98,2.03 4.23,3.28 1.38,1.38 2.44,2.94 3.15,4.65 0.71,1.71 1.06,3.55 1.06,5.52 0,1.97 -0.35,3.82 -1.06,5.54 -0.71,1.72 -1.76,3.28 -3.16,4.68 -1.41,1.41 -2.96,2.48 -4.67,3.19 -1.71,0.71 -3.55,1.07 -5.52,1.07 -1.98,0 -3.84,-0.36 -5.55,-1.08 -1.71,-0.71 -3.26,-1.78 -4.66,-3.2 -1.12,-1.11 -2.02,-2.33 -2.7,-3.64 -0.69,-1.33 -1.14,-2.74 -1.36,-4.24l-0.24 -1.61 6.17 -2.25 0.26 2.56c0.09,0.9 0.33,1.74 0.71,2.52 0.38,0.77 0.92,1.51 1.61,2.19l0.02 0.02c0.79,0.8 1.67,1.4 2.61,1.79 0.95,0.39 1.99,0.58 3.13,0.58 1.14,0 2.18,-0.19 3.12,-0.58 0.95,-0.39 1.82,-0.99 2.62,-1.79 0.8,-0.81 1.4,-1.69 1.8,-2.63 0.39,-0.94 0.58,-1.98 0.58,-3.12 0,-1.12 -0.19,-2.15 -0.58,-3.09 -0.4,-0.95 -1,-1.82 -1.8,-2.63 -0.77,-0.77 -1.63,-1.46 -2.58,-2.08 -0.95,-0.61 -1.99,-1.16 -3.11,-1.62zm28.23 -20.6l0 43.99 -6.39 0 0 -45.99 6.39 0 0 2zm18.96 -2c3.68,0.03 6.97,0.56 9.86,1.6 2.96,1.07 5.5,2.67 7.61,4.79 2.28,2.29 4,4.83 5.15,7.61 1.15,2.79 1.73,5.79 1.73,9 0,3.23 -0.58,6.24 -1.73,9.04 -1.15,2.78 -2.87,5.32 -5.15,7.6 -2.1,2.11 -4.64,3.69 -7.6,4.75 -2.9,1.04 -6.19,1.57 -9.87,1.59l-9.79 0.01 0 -45.99 9.79 0zm-3.41 6.47l0 33.09 3.37 0c5.48,0 9.78,-1.49 12.87,-4.46 1.68,-1.68 2.93,-3.52 3.76,-5.52 0.82,-2 1.24,-4.19 1.24,-6.58 0,-2.38 -0.42,-4.57 -1.24,-6.57 -0.83,-1.99 -2.07,-3.83 -3.73,-5.5 -1.53,-1.48 -3.36,-2.58 -5.46,-3.32 -2.16,-0.76 -4.64,-1.14 -7.44,-1.14l-3.37 0zm60.14 -4.47l0 4.38 -18.61 0 0 13.43 18.61 0 0 6.38 -18.61 0 0 13.43 18.61 0 0 6.37 -24.99 0 0 -45.99 24.99 0 0 2z"/>
    <polygon class="fil0" points="826.74,1480.29 812.33,1455.3 815,1455.3 827.89,1477.68 840.84,1455.3 843.52,1455.3 829.11,1480.29 829.11,1497.26 826.74,1497.26 "/>
    <path id="1" class="fil0" d="M874.07 1454.69c5.96,0 11.07,2.07 15.27,6.33 4.19,4.19 6.32,9.24 6.32,15.2 0,5.96 -2.13,11.01 -6.32,15.26 -4.2,4.2 -9.31,6.27 -15.27,6.27 -5.9,0 -11,-2.07 -15.2,-6.27 -4.19,-4.25 -6.32,-9.3 -6.32,-15.26 0,-5.96 2.13,-11.01 6.32,-15.2 4.2,-4.26 9.3,-6.33 15.2,-6.33zm0 2.38c-5.23,0 -9.73,1.88 -13.5,5.65 -3.71,3.71 -5.59,8.21 -5.59,13.5 0,5.29 1.88,9.79 5.59,13.5 3.77,3.77 8.27,5.65 13.5,5.65 5.29,0 9.79,-1.88 13.56,-5.65 3.71,-3.71 5.6,-8.21 5.6,-13.5 0,-5.29 -1.89,-9.79 -5.6,-13.5 -3.77,-3.77 -8.27,-5.65 -13.56,-5.65z"/>
    <path id="2" class="fil0" d="M932.05 1455.3l2.37 0 0 30.16c-0.42,3.16 -1.76,5.9 -4.01,8.15 -2.62,2.68 -5.9,4.01 -9.67,4.01 -3.77,0 -6.99,-1.33 -9.67,-4.01 -2.67,-2.67 -4.01,-5.9 -4.01,-9.67l0 -28.64 2.37 0 0 28.64c0,3.1 1.09,5.78 3.28,7.97 2.25,2.25 4.93,3.34 8.03,3.34 3.16,0 5.84,-1.09 8.02,-3.34 2.19,-2.19 3.29,-4.87 3.29,-7.97l0 -28.64z"/>
    <path class="fil0" d="M824.73 1480.79l-15.88 -27.52 7.29 0 11.78 20.4 11.77 -20.4 7.3 0 -15.88 27.52 0 18.47 -6.38 0 0 -18.47zm49.36 -28.11c3.24,0 6.25,0.58 9.04,1.73 2.8,1.16 5.34,2.88 7.62,5.16 2.29,2.29 4.01,4.83 5.17,7.61 1.15,2.79 1.73,5.8 1.73,9.03 0,3.23 -0.58,6.24 -1.73,9.04 -1.16,2.79 -2.88,5.33 -5.17,7.62 -2.28,2.28 -4.82,4 -7.61,5.16 -2.8,1.16 -5.81,1.74 -9.05,1.74 -3.22,0 -6.24,-0.58 -9.02,-1.74 -2.79,-1.15 -5.33,-2.88 -7.61,-5.16 -2.29,-2.29 -4.01,-4.83 -5.16,-7.62 -1.16,-2.8 -1.73,-5.81 -1.73,-9.04 0,-3.22 0.57,-6.23 1.73,-9.02 1.15,-2.79 2.87,-5.34 5.16,-7.62 2.28,-2.28 4.82,-4 7.61,-5.16 2.79,-1.15 5.8,-1.73 9.02,-1.73zm0 6.4c-2.37,0 -4.56,0.42 -6.56,1.25 -2,0.83 -3.85,2.1 -5.53,3.78 -1.69,1.68 -2.95,3.53 -3.78,5.54 -0.83,2 -1.25,4.18 -1.25,6.56 0,2.38 0.42,4.58 1.25,6.58 0.83,2.01 2.09,3.86 3.78,5.55 1.67,1.68 3.52,2.94 5.53,3.77 2,0.83 4.19,1.24 6.56,1.24 2.39,0 4.59,-0.41 6.59,-1.24 2.01,-0.83 3.86,-2.09 5.54,-3.77 1.69,-1.69 2.95,-3.54 3.77,-5.54 0.83,-2 1.25,-4.2 1.25,-6.59 0,-2.38 -0.41,-4.57 -1.24,-6.56 -0.83,-2.01 -2.09,-3.85 -3.78,-5.54 -1.68,-1.68 -3.53,-2.95 -5.55,-3.78 -2,-0.83 -4.2,-1.25 -6.58,-1.25zm57.99 -5.81l4.37 0 0 32.17 -0.03 0.27c-0.24,1.81 -0.75,3.49 -1.51,5.05 -0.77,1.57 -1.79,2.99 -3.05,4.26 -1.53,1.52 -3.23,2.67 -5.08,3.44 -1.87,0.77 -3.87,1.15 -6.02,1.15 -2.15,0 -4.16,-0.38 -6.03,-1.15 -1.88,-0.78 -3.58,-1.92 -5.09,-3.43 -1.52,-1.53 -2.67,-3.22 -3.44,-5.08 -0.77,-1.86 -1.16,-3.87 -1.16,-6.02l0 -30.66 6.38 0 0 30.66c0,1.29 0.23,2.49 0.68,3.56 0.45,1.08 1.14,2.09 2.06,3.01 0.92,0.93 1.93,1.62 3.02,2.07 1.08,0.45 2.28,0.67 3.58,0.67 1.3,0 2.5,-0.22 3.58,-0.67 1.08,-0.45 2.09,-1.14 3.01,-2.07 0.92,-0.91 1.6,-1.92 2.05,-3.01 0.45,-1.08 0.67,-2.27 0.67,-3.56l0 -30.66 2.01 0z"/>
    <path class="fil0" d="M963.1 1492.92c0.62,0 1.17,0.23 1.64,0.69 0.46,0.46 0.7,1 0.7,1.66 0,0.65 -0.24,1.21 -0.7,1.66 -0.47,0.46 -1.02,0.69 -1.64,0.69 -0.66,0 -1.22,-0.23 -1.69,-0.69 -0.46,-0.45 -0.7,-1.01 -0.7,-1.66 0,-0.66 0.24,-1.2 0.7,-1.66 0.47,-0.46 1.03,-0.69 1.69,-0.69zm1.12 -43.41l0 34.74 -2.38 0 0 -34.74 2.38 0z"/>
    <path class="fil0" d="M963.1 1490.92c0.57,0 1.12,0.11 1.64,0.33 0.52,0.22 0.98,0.53 1.4,0.94 0.41,0.41 0.74,0.88 0.96,1.4 0.23,0.53 0.34,1.09 0.34,1.68 0,0.58 -0.12,1.15 -0.34,1.68 -0.22,0.53 -0.55,1 -0.96,1.41 -0.42,0.41 -0.89,0.72 -1.4,0.93 -0.53,0.22 -1.08,0.32 -1.64,0.32 -0.59,0 -1.14,-0.1 -1.67,-0.31 -0.52,-0.21 -0.99,-0.53 -1.41,-0.94 -0.42,-0.41 -0.74,-0.88 -0.97,-1.41 -0.22,-0.53 -0.34,-1.1 -0.34,-1.68 0,-0.58 0.12,-1.14 0.34,-1.68 0.23,-0.53 0.55,-1 0.97,-1.41 0.42,-0.4 0.89,-0.71 1.41,-0.93 0.53,-0.21 1.09,-0.33 1.67,-0.33zm0.11 4.01l-0.11 -0.01 -0.16 0.02 -0.13 0.09 -0.09 0.11 0.01 0.26 0.08 0.11 0.12 0.08 0.17 0.02 0.12 -0.01 0.13 -0.09 0.08 -0.11 0.01 -0.13 -0.02 -0.14 -0.08 -0.1 -0.13 -0.1zm3.01 -45.42l0 36.74 -6.38 0 0 -38.74 6.38 0 0 2z"/>
    <polygon class="fil0" points="226.22,1419.17 964.78,1419.17 964.78,1424.84 226.22,1424.84 "/>
    <path class="fil1" d="M1142.25 1240.31l0 -13.08 48.75 0 0 14.08 -16.17 0 0 143.75 -16.41 0 0 -143.75 -16.17 0 0 -1zm-91.94 1l-15 0 0 -14.27 46.61 0 0 14.27 -15 0 0 129.48 14.8 0 0 14.27 -46.61 0 0 -14.27 15.2 0 0 -129.48zm-124.28 142.75l0 -156.83 23.21 0c4.25,0 8.51,0.7 12.77,2.1 2.19,0.71 4.16,1.75 5.9,3.1 1.75,1.35 3.27,3.02 4.56,4.99l0.03 0.05c1.52,2.62 2.28,5.65 2.28,9.07l0 48.89c0,2.37 -0.62,4.74 -1.87,7.09l-0.03 0.05c-0.74,1.22 -1.52,2.32 -2.32,3.29 -0.54,0.65 -1.1,1.25 -1.67,1.8 0.83,0.71 1.57,1.43 2.21,2.16 0.88,1.01 1.59,2.04 2.11,3.09 0.53,1.05 0.93,2.24 1.19,3.56 0.25,1.3 0.38,2.73 0.38,4.28l0 45c0,1.7 -0.19,3.31 -0.57,4.82 -0.38,1.52 -0.95,2.94 -1.71,4.25l-0.03 0.05c-1.29,1.97 -2.81,3.64 -4.56,4.99 -1.74,1.35 -3.71,2.39 -5.9,3.11 -4.26,1.39 -8.52,2.09 -12.77,2.09l-23.21 0 0 -1zm16.42 -144.12l0 61.51 6.79 0c1.09,0 2.14,-0.15 3.17,-0.43 1.04,-0.28 2.06,-0.72 3.05,-1.29 1.81,-1.04 2.71,-2.73 2.71,-5.08l0 -48.11c0,-1.27 -0.21,-2.33 -0.64,-3.18 -0.41,-0.8 -1.03,-1.43 -1.86,-1.89 -0.93,-0.51 -1.93,-0.89 -2.99,-1.14 -1.06,-0.26 -2.21,-0.39 -3.44,-0.39l-6.79 0zm7.18 75.58l-7.18 0 0 56.63 6.79 0c1.16,0 2.28,-0.12 3.33,-0.36 1.05,-0.24 2.07,-0.6 3.04,-1.09 0.85,-0.42 1.49,-1.03 1.9,-1.81 0.44,-0.82 0.66,-1.87 0.66,-3.14l0 -43.63c0,-1.21 -0.21,-2.22 -0.64,-3.05 -0.41,-0.8 -1.04,-1.45 -1.88,-1.93 -0.92,-0.54 -1.89,-0.94 -2.9,-1.22 -0.99,-0.26 -2.04,-0.4 -3.12,-0.4zm-132.68 68.54l0 -156.83 23.21 0c4.25,0 8.51,0.7 12.77,2.1 2.19,0.71 4.15,1.75 5.9,3.1 1.75,1.35 3.27,3.02 4.56,4.99l0.03 0.05c1.52,2.62 2.28,5.65 2.28,9.07l0 48.89c0,2.37 -0.62,4.74 -1.87,7.09l-0.03 0.05c-0.74,1.22 -1.52,2.32 -2.32,3.29 -0.54,0.65 -1.1,1.25 -1.68,1.8 0.84,0.71 1.57,1.43 2.22,2.16 0.88,1.01 1.59,2.04 2.11,3.09 0.53,1.05 0.92,2.24 1.19,3.56 0.25,1.3 0.38,2.73 0.38,4.28l0 45c0,1.7 -0.19,3.31 -0.57,4.82 -0.38,1.52 -0.95,2.94 -1.71,4.25l-0.03 0.05c-1.29,1.97 -2.81,3.64 -4.56,4.99 -1.75,1.35 -3.71,2.39 -5.9,3.11 -4.26,1.39 -8.52,2.09 -12.77,2.09l-23.21 0 0 -1zm16.41 -144.12l0 61.51 6.8 0c1.08,0 2.14,-0.15 3.17,-0.43 1.03,-0.28 2.05,-0.72 3.05,-1.29 1.8,-1.04 2.71,-2.73 2.71,-5.08l0 -48.11c0,-1.27 -0.22,-2.33 -0.64,-3.18 -0.42,-0.8 -1.04,-1.43 -1.86,-1.89 -0.93,-0.51 -1.93,-0.89 -2.99,-1.14 -1.06,-0.26 -2.21,-0.39 -3.44,-0.39l-6.8 0zm7.18 75.58l-7.18 0 0 56.63 6.8 0c1.16,0 2.27,-0.12 3.33,-0.36 1.05,-0.24 2.07,-0.6 3.04,-1.09 0.85,-0.42 1.48,-1.03 1.9,-1.81 0.44,-0.82 0.66,-1.87 0.66,-3.14l0 -43.63c0,-1.21 -0.21,-2.22 -0.64,-3.05 -0.42,-0.8 -1.04,-1.45 -1.88,-1.93 -0.93,-0.54 -1.89,-0.94 -2.9,-1.22 -1,-0.26 -2.04,-0.4 -3.13,-0.4zm-133.44 68.44l16.84 -156.92 15.82 0c5.61,52.67 11.3,105.35 16.97,158.02l-16.62 0 -3.5 -32.72 -9.7 0 -3.31 32.72 -16.62 0 0.12 -1.1zm28.34 -45.89l-3.57 -40.52 -3.41 40.52 6.98 0zm-105.3 -43.42l0 -48.11c0,-1.27 -0.21,-2.33 -0.64,-3.18 -0.41,-0.8 -1.03,-1.43 -1.85,-1.89 -0.93,-0.51 -1.93,-0.89 -2.99,-1.14 -1.07,-0.26 -2.22,-0.39 -3.45,-0.39l-6.79 0 0 61.51 6.79 0c1.08,0 2.14,-0.15 3.16,-0.45 1.03,-0.3 2.05,-0.75 3.05,-1.35 0.91,-0.56 1.6,-1.25 2.05,-2.07 0.45,-0.82 0.67,-1.8 0.67,-2.93zm-32.13 89.41l0 -156.83 23.2 0c1.56,0 3.13,0.08 4.7,0.23 1.56,0.15 3.08,0.37 4.55,0.67 1.51,0.3 2.95,0.71 4.31,1.24 1.36,0.53 2.63,1.16 3.82,1.91 1.2,0.76 2.3,1.64 3.27,2.63 0.98,1 1.85,2.11 2.6,3.35 1.53,2.49 2.3,5.59 2.3,9.28l0 48.11c0,5.13 -1.97,9.48 -5.9,13.05 0.72,0.64 1.38,1.3 1.99,1.97 0.85,0.95 1.58,1.94 2.2,2.98l0.06 0.11c0.55,1.23 0.96,2.52 1.23,3.85 0.28,1.34 0.42,2.73 0.42,4.14l0 64.31 -16.62 0 0 -62.94c0,-1.13 -0.22,-2.1 -0.65,-2.91 -0.43,-0.8 -1.09,-1.46 -1.97,-1.98 -0.96,-0.57 -1.94,-1 -2.93,-1.28 -0.97,-0.29 -1.97,-0.43 -2.99,-0.43l-7.18 0 0 69.54 -16.41 0 0 -1zm-136.03 -140.7c-0.41,-0.8 -1.03,-1.43 -1.85,-1.89 -0.93,-0.51 -1.93,-0.89 -2.99,-1.14 -1.07,-0.26 -2.22,-0.39 -3.45,-0.39l-6.79 0 0 61.51 6.79 0c1.08,0 2.14,-0.15 3.16,-0.45 1.03,-0.3 2.05,-0.75 3.05,-1.35 0.91,-0.56 1.6,-1.25 2.05,-2.07 0.45,-0.82 0.68,-1.8 0.68,-2.93l0 -48.11c0,-1.27 -0.22,-2.33 -0.65,-3.18zm-31.49 140.7l0 -156.83 23.2 0c1.57,0 3.13,0.08 4.7,0.23 1.56,0.15 3.08,0.37 4.55,0.67 1.51,0.3 2.95,0.71 4.31,1.24 1.36,0.53 2.63,1.16 3.82,1.91 1.2,0.76 2.3,1.64 3.27,2.63 0.98,1 1.85,2.11 2.6,3.35 1.53,2.49 2.3,5.59 2.3,9.28l0 48.11c0,5.13 -1.97,9.48 -5.9,13.05 0.72,0.64 1.38,1.3 1.99,1.97 0.85,0.95 1.58,1.94 2.2,2.98l0.06 0.11c0.55,1.23 0.96,2.52 1.23,3.85 0.28,1.34 0.42,2.73 0.42,4.14l0 64.31 -16.61 0 0 -62.94c0,-1.13 -0.22,-2.1 -0.66,-2.91 -0.43,-0.8 -1.09,-1.46 -1.97,-1.98 -0.96,-0.57 -1.94,-1 -2.93,-1.28 -0.97,-0.29 -1.97,-0.43 -2.99,-0.43l-7.18 0 0 69.54 -16.41 0 0 -1zm-102.46 0l0 -157.02 42.12 0 0 14.27 -25.71 0 0 60.14 25.71 0 0 14.07 -25.71 0 0 55.47 25.71 0 0 14.07 -42.12 0 0 -1zm-109.09 0l0 -156.83 23.21 0c1.56,0 3.13,0.08 4.7,0.23 1.56,0.15 3.08,0.37 4.55,0.67 1.51,0.3 2.94,0.71 4.31,1.24 1.35,0.53 2.63,1.16 3.82,1.91 1.2,0.76 2.29,1.64 3.27,2.63 0.98,1 1.85,2.11 2.6,3.35 1.53,2.49 2.29,5.59 2.29,9.28l0 49.67c0,1.7 -0.19,3.31 -0.56,4.82 -0.38,1.52 -0.96,2.94 -1.72,4.25l-0.02 0.05c-1.3,1.97 -2.82,3.64 -4.56,4.99 -1.75,1.35 -3.72,2.39 -5.91,3.11 -4.25,1.39 -8.51,2.09 -12.77,2.09l-6.79 0 0 69.54 -16.42 0 0 -1zm16.42 -144.12l0 61.51 6.79 0c1.08,0 2.14,-0.15 3.16,-0.45 1.03,-0.3 2.05,-0.75 3.04,-1.35 1.82,-1.11 2.73,-2.77 2.73,-5l0 -48.11c0,-1.27 -0.21,-2.33 -0.64,-3.18 -0.41,-0.8 -1.03,-1.43 -1.86,-1.89 -0.93,-0.51 -1.92,-0.89 -2.98,-1.14 -1.07,-0.26 -2.22,-0.39 -3.45,-0.39l-6.79 0zm-126.27 144.02l16.85 -156.92 15.82 0c5.6,52.67 11.29,105.35 16.96,158.02l-16.61 0 -3.51 -32.72 -9.7 0 -3.31 32.72 -16.62 0 0.12 -1.1zm24.78 -86.41l-3.42 40.52 6.98 0 -3.56 -40.52zm-117.46 -57.61l0 61.51 6.8 0c1.08,0 2.13,-0.15 3.15,-0.45 1.04,-0.3 2.06,-0.75 3.05,-1.35 0.92,-0.56 1.6,-1.25 2.05,-2.07 0.45,-0.82 0.68,-1.8 0.68,-2.93l0 -48.11c0,-1.27 -0.22,-2.33 -0.64,-3.18 -0.42,-0.8 -1.04,-1.43 -1.86,-1.89 -0.93,-0.51 -1.93,-0.89 -2.99,-1.14 -1.06,-0.26 -2.21,-0.39 -3.44,-0.39l-6.8 0zm-16.41 144.12l0 -156.83 23.21 0c1.56,0 3.13,0.08 4.69,0.23 1.57,0.15 3.09,0.37 4.56,0.67 1.5,0.3 2.94,0.71 4.3,1.24 1.36,0.53 2.64,1.16 3.83,1.91 1.2,0.76 2.29,1.64 3.27,2.63 0.98,1 1.84,2.11 2.6,3.35 1.52,2.49 2.29,5.59 2.29,9.28l0 49.67c0,1.7 -0.19,3.31 -0.57,4.82 -0.38,1.52 -0.95,2.94 -1.71,4.25l-0.03 0.05c-1.29,1.97 -2.81,3.64 -4.56,4.99 -1.75,1.35 -3.71,2.39 -5.9,3.11 -4.26,1.39 -8.52,2.09 -12.77,2.09l-6.8 0 0 69.54 -16.41 0 0 -1z"/>
    <g>
     <polygon class="fil1" points="509.82,909.82 677.65,909.09 677.01,922.18 509.38,922.91 "/>
     <polygon class="fil1" points="804.96,633.9 866.52,803.19 855,810.02 789.69,630.19 "/>
     <polygon class="fil1" points="594.01,596.33 594.05,582.79 804.96,633.9 810.33,648.66 "/>
     <polygon class="fil1" points="675.55,903.1 862.06,791.06 869.98,801.11 687.24,909.41 "/>
     <polygon class="fil1" points="664.16,930.51 790.79,630.46 804.86,634 678.71,929.69 "/>
     <polygon class="fil1" points="862,791.06 945.99,896.93 939.51,909.82 850.61,797.94 "/>
     <polygon class="fil1" points="851.83,1054.1 936.87,885.45 945.99,896.93 869.35,1048.63 "/>
     <polygon class="fil1" points="691.44,1091.26 877.27,1032.96 869.35,1048.63 693.45,1103.53 "/>
     <polygon class="fil1" points="675.55,909.41 706.25,1099.52 693.46,1103.55 663.35,920.63 "/>
     <polygon class="fil1" points="588.62,988.5 671.39,913.33 681.98,921.91 588.62,1004.86 "/>
     <polygon class="fil1" points="762.41,637.07 749.89,634.04 856.71,246.59 862,276.14 "/>
     <polygon class="fil1" points="853.48,307.02 806.19,30.08 823.8,53.7 861.79,276.34 "/>
     <polygon class="fil1" points="642.32,328.17 776.34,3.29 763.45,0 645.46,286.23 "/>
     <polygon class="fil1" points="623.49,603.54 645.54,285.12 661.34,246.33 636.38,606.58 "/>
     <polygon class="fil1" points="788.04,6.05 763.14,0.17 757.44,14.58 784.24,21.15 "/>
     <polygon class="fil1" points="595.27,1118.14 675.85,1095.42 693.49,1103.54 595.27,1131.6 "/>
     <polygon class="fil1" points="631.25,1080.2 691.44,1091.26 693.46,1103.51 636.75,1093.44 "/>
     <polygon class="fil1" points="588.62,1046.93 648.93,1085.55 636.75,1093.44 588.62,1062.46 "/>
     <polygon class="fil1" points="739.43,752.37 773.12,804.48 769.35,822.1 733.26,766.93 "/>
     <polygon class="fil1" points="773.12,804.48 759.89,866.37 745.16,875.25 763.41,789.46 "/>
     <polygon class="fil1" points="697.77,437.61 771.14,639.18 755.55,635.41 696.47,472.33 "/>
     <polygon class="fil1" points="716.41,287.16 708.21,504.52 696.33,471.95 703.1,290.92 "/>
     <polygon class="fil1" points="700.85,352.38 788.04,6.05 775.59,3.11 702.94,291.55 "/>
     <polygon class="fil1" points="823.92,53.57 788.04,6.05 783.92,21.07 828.58,80.71 "/>
     <polygon class="fil1" points="588.62,982.26 602.38,982.26 602.38,1067.32 588.62,1067.32 "/>
     <polygon class="fil1" points="386.04,633.9 324.48,803.19 335.91,809.96 401.31,630.19 "/>
     <polygon class="fil1" points="596.99,596.33 596.95,582.79 386.04,633.9 380.67,648.66 "/>
     <polygon class="fil1" points="515.45,903.1 329.05,790.96 321.09,801.18 503.76,909.41 "/>
     <polygon class="fil1" points="526.84,930.51 400.21,630.46 386.14,634 512.64,930.51 "/>
     <polygon class="fil1" points="329.05,791 245.01,896.93 251.49,909.82 340.46,797.82 "/>
     <polygon class="fil1" points="339.17,1054.1 254.12,885.45 245.01,896.93 321.65,1048.63 "/>
     <polygon class="fil1" points="499.47,1091.28 313.73,1032.96 321.65,1048.63 497.69,1103.66 "/>
     <polygon class="fil1" points="515.45,909.41 484.73,1099.64 497.44,1103.55 527.65,920.51 "/>
     <polygon class="fil1" points="602.38,988.5 519.61,913.33 509.02,921.91 602.38,1004.86 "/>
     <polygon class="fil1" points="428.59,637.07 441.11,634.04 334.29,246.59 329,276.14 "/>
     <polygon class="fil1" points="337.52,307.02 384.81,30.08 367.2,53.7 329.21,276.34 "/>
     <polygon class="fil1" points="548.67,328.17 414.66,3.29 427.55,0 545.54,286.23 "/>
     <polygon class="fil1" points="567.51,603.54 545.46,285.12 529.66,246.33 554.62,606.58 "/>
     <polygon class="fil1" points="402.96,6.05 427.86,0.17 433.56,14.58 406.76,21.15 "/>
     <polygon class="fil1" points="595.73,1118.14 515.15,1095.42 497.32,1103.55 595.73,1131.6 "/>
     <polygon class="fil1" points="559.75,1080.2 499.47,1091.28 497.32,1103.55 554.25,1093.44 "/>
     <polygon class="fil1" points="602.38,1046.93 542.07,1085.55 554.25,1093.44 602.38,1062.46 "/>
     <polygon class="fil1" points="451.57,752.37 417.76,805.4 421.35,822.1 457.74,766.93 "/>
     <polygon class="fil1" points="417.76,805.4 431.11,866.37 445.84,875.25 427.68,789.85 "/>
     <polygon class="fil1" points="493.23,437.61 419.86,639.18 435.45,635.41 494.53,472.33 "/>
     <polygon class="fil1" points="474.59,287.16 482.79,504.52 494.67,471.95 487.9,290.92 "/>
     <polygon class="fil1" points="490.15,352.38 402.96,6.05 415.41,3.11 488.06,291.55 "/>
     <polygon class="fil1" points="367.08,53.57 402.96,6.05 407.08,21.07 362.42,80.71 "/>
    </g>
    <g>
     <g>
      <polygon class="fil1" points="373.01,345.91 423.28,453.35 432.92,441.31 387.72,345.07 "/>
      <polygon class="fil1" points="423.28,453.35 481.1,509.41 486.57,494.18 427.2,435.76 "/>
     </g>
     <polygon class="fil1" points="343.1,327.23 387.71,345.07 379.14,359.01 348.78,347.82 "/>
    </g>
    <g>
     <g>
      <polygon class="fil1" points="818.43,345.91 768.16,453.35 758.52,441.31 803.73,345.07 "/>
      <polygon class="fil1" points="768.16,453.35 710.34,509.41 704.88,494.18 764.24,435.76 "/>
     </g>
     <polygon class="fil1" points="848.34,327.23 803.73,345.07 812.3,359.01 842.66,347.82 "/>
    </g>
   </g>
   <path class="fil0" d="M807.05 576.02c-5.21,0 -9.66,1.86 -13.36,5.57 -3.67,3.71 -5.51,8.16 -5.51,13.4 0,5.26 1.83,9.76 5.48,13.48 3.68,3.71 8.14,5.57 13.39,5.57 5.26,0 9.72,-1.86 13.4,-5.57 3.67,-3.72 5.51,-8.22 5.51,-13.48 0,-5.24 -1.84,-9.69 -5.51,-13.4 -3.7,-3.71 -8.16,-5.57 -13.4,-5.57zm22.02 18.97c0,6.09 -2.15,11.29 -6.44,15.6 -4.29,4.32 -9.48,6.47 -15.58,6.47 -6.09,0 -11.26,-2.15 -15.54,-6.47 -4.25,-4.29 -6.38,-9.5 -6.38,-15.6 0,-6.05 2.14,-11.23 6.43,-15.52 4.28,-4.28 9.44,-6.41 15.49,-6.41 6.1,0 11.29,2.13 15.58,6.41 4.29,4.27 6.44,9.45 6.44,15.52zm-16.26 -4.8c0,-1.76 -0.54,-2.93 -1.6,-3.53 -1.08,-0.6 -2.79,-0.9 -5.15,-0.9l-3.62 0 0 8.75 3.84 0c1.8,0 3.15,-0.19 4.04,-0.54 1.66,-0.66 2.49,-1.92 2.49,-3.78zm-6.17 -7.34c2.99,0 5.19,0.3 6.59,0.87 2.49,1.04 3.74,3.08 3.74,6.12 0,2.15 -0.78,3.74 -2.37,4.76 -0.84,0.53 -2,0.93 -3.5,1.17 1.89,0.29 3.29,1.08 4.17,2.36 0.87,1.28 1.31,2.53 1.31,3.75l0 1.76c0,0.56 0.02,1.16 0.06,1.8 0.04,0.64 0.11,1.06 0.21,1.26l0.15 0.3 -3.98 0c-0.03,-0.08 -0.05,-0.16 -0.07,-0.24 -0.02,-0.08 -0.04,-0.17 -0.06,-0.27l-0.08 -0.78 0 -1.92c0,-2.79 -0.76,-4.64 -2.28,-5.54 -0.9,-0.52 -2.47,-0.78 -4.73,-0.78l-3.36 0 0 9.53 -4.25 0 0 -24.15 8.45 0z"/>
  </g>
 </g>
</svg>
